<svg width="96" height="96" viewBox="0 0 96 96" fill="none" xmlns="http://www.w3.org/2000/svg">
    <g clip-path="url(#clip0_0_10232)">
        <path
            d="M96 36.4087C96 36.4087 96 36.3599 96 36.3111C96 36.1647 95.9024 36.0671 95.8536 35.9207C95.8536 35.8231 95.8536 35.6767 95.756 35.5791C95.756 35.5791 95.6584 35.5791 95.6584 35.5303C95.6096 35.4814 95.5608 35.4326 95.512 35.3838C95.512 35.3838 95.512 35.2862 95.4632 35.2862L75.6482 20.7422V3.02593C75.6482 2.24504 75.0137 1.56177 74.1841 1.56177H20.7911C20.0102 1.56177 19.3269 2.19624 19.3269 3.02593V21.5231L0.585686 35.2374C0.585686 35.2374 0.585686 35.2862 0.536881 35.335C0.488076 35.3838 0.43927 35.4326 0.390465 35.4814C0.390465 35.4814 0.292855 35.4814 0.292855 35.5303C0.195244 35.6279 0.292855 35.7743 0.195244 35.8719C0.146439 36.0183 0.0488281 36.1159 0.0488281 36.2623C0.0488281 36.2623 0.0488281 36.3111 0.0488281 36.3599V92.9741C0.0488281 92.9741 0.195244 93.2669 0.244049 93.4133C0.244049 93.5597 0.244049 93.7062 0.34166 93.8526C0.34166 93.8526 0.43927 93.8526 0.43927 93.9014C0.585686 94.0478 0.732102 94.0966 0.878518 94.1942C1.07374 94.2918 1.17135 94.3894 1.36657 94.3894C1.36657 94.3894 1.41538 94.3894 1.46418 94.3894H94.5359C94.8775 94.3894 95.1703 94.243 95.4632 93.999C95.512 93.999 95.5608 93.9502 95.6096 93.9014C95.6096 93.9014 95.7072 93.8526 95.7072 93.8038C95.8048 93.6573 95.756 93.5109 95.8048 93.3645C95.8536 93.2181 96 93.1205 96 92.9253V36.4087ZM2.92834 39.2883L37.6289 64.7158L2.92834 90.1434V39.2883ZM48.0244 60.7138L90.1434 91.5587H5.90546L48.0244 60.7138ZM58.42 64.7158L93.1205 39.2883V90.1434L58.42 64.7158ZM92.1444 36.4087L75.6482 48.5125V24.305L92.1444 36.4087ZM72.6711 4.49009V50.6599L55.9309 62.91L48.8541 57.7367C48.3661 57.3462 47.634 57.3462 47.1459 57.7367L40.0692 62.91L22.2064 49.8302V4.49009H72.6711ZM19.3269 47.6828L3.90445 36.4087L19.2781 25.1347V47.6828H19.3269Z"
            fill="#FFB81C" />
    </g>
    <defs>
        <clipPath id="clip0_0_10232">
            <rect width="96" height="92.8765" fill="white" transform="translate(0 1.56177)" />
        </clipPath>
    </defs>
</svg>